<svg id="svg" xmlns="http://www.w3.org/2000/svg" xmlns:xlink="http://www.w3.org/1999/xlink" width="400" height="400" viewBox="0, 0, 400,400"><g id="svgg"><path id="path0" d="M178.304 19.592 C 39.456 34.697,-30.377 196.038,53.126 308.800 C 133.018 416.686,301.852 401.103,360.830 280.400 C 423.875 151.374,320.799 4.091,178.304 19.592 M237.861 68.348 C 271.221 74.731,283.534 109.759,269.979 159.723 C 264.859 178.597,258.202 197.693,256.310 198.932 C 253.900 200.512,238.152 204.369,227.397 206.014 C 214.181 208.036,214.078 207.852,219.688 192.254 C 242.639 128.441,245.451 113.685,236.304 105.057 C 227.310 96.575,213.266 104.680,206.516 122.246 C 203.122 131.081,196.915 158.883,190.407 194.400 C 179.220 255.452,177.246 263.628,170.674 276.135 C 167.190 282.764,166.376 282.003,178.126 283.096 C 204.657 285.563,258.694 280.870,274.764 274.703 C 277.040 273.830,276.313 303.183,273.959 307.200 C 271.925 310.673,271.774 310.698,243.200 312.377 C 201.932 314.801,168.822 313.440,145.037 308.342 C 139.377 307.129,139.157 307.144,132.773 309.161 C 103.975 318.258,75.514 313.006,68.096 297.225 C 59.178 278.254,81.461 269.441,124.800 274.798 L 129.200 275.342 131.966 271.071 C 143.104 253.872,152.903 217.779,157.993 175.200 C 167.377 96.706,194.741 60.098,237.861 68.348 " stroke="none" fill="#1f8eba" fill-rule="evenodd"></path></g></svg>